<?xml version="1.0" standalone="no"?>
<!DOCTYPE svg PUBLIC "-//W3C//DTD SVG 20010904//EN"
 "http://www.w3.org/TR/2001/REC-SVG-20010904/DTD/svg10.dtd">
<svg version="1.0" xmlns="http://www.w3.org/2000/svg"
 width="512.000000pt" height="512.000000pt" viewBox="0 0 512.000000 512.000000"
 preserveAspectRatio="xMidYMid meet">
<metadata>
Created by potrace 1.11, written by Peter Selinger 2001-2013
</metadata>
<g transform="translate(0.000000,512.000000) scale(0.100000,-0.100000)"
fill="#000000" stroke="none">
<path d="M2205 4763 c-52 -13 -58 -46 -20 -113 14 -25 41 -76 60 -115 l35 -69
0 -437 c0 -239 -3 -538 -7 -662 l-6 -227 -66 -20 c-36 -10 -356 -96 -711 -190
-807 -214 -750 -197 -750 -220 0 -22 36 -37 223 -89 l138 -39 92 40 c209 90
776 268 812 254 15 -5 17 -16 13 -70 -10 -123 -178 -426 -386 -696 -124 -160
-413 -436 -755 -719 -82 -67 -146 -128 -144 -134 8 -24 60 -7 190 64 388 212
649 397 903 642 200 192 391 424 465 564 40 76 37 103 -34 268 -31 71 -53 133
-49 137 16 15 535 108 742 132 166 20 437 36 607 36 148 0 293 14 327 32 143
73 51 165 -279 277 -67 22 -141 44 -166 47 -44 6 -48 4 -97 -39 -27 -25 -65
-50 -84 -56 -80 -26 -646 -141 -694 -141 -23 0 -24 3 -24 59 0 32 3 79 6 104
l7 46 181 127 c99 70 296 211 435 312 140 102 279 200 308 219 84 53 91 84 42
182 -37 75 -111 157 -194 216 -127 91 -145 84 -145 -49 0 -106 -2 -109 -119
-286 -98 -149 -237 -333 -360 -479 -108 -127 -138 -157 -148 -148 -10 10 72
870 91 949 7 29 -47 91 -135 158 -122 92 -248 147 -304 133z"/>
<path d="M2420 4723 c0 -5 22 -22 48 -40 26 -18 80 -62 120 -98 83 -77 81 -69
57 -250 -13 -103 -56 -520 -71 -699 -4 -54 -3 -77 4 -75 32 12 336 400 469
599 108 161 113 174 113 283 0 59 4 97 12 105 24 24 74 13 139 -30 141 -94
249 -239 249 -334 0 -60 -5 -69 -63 -106 -29 -17 -164 -114 -302 -213 -137
-100 -332 -239 -433 -309 -102 -72 -187 -138 -191 -150 -11 -29 -21 -165 -13
-169 19 -11 675 129 724 154 21 11 45 30 54 44 30 45 72 50 182 19 257 -72
429 -160 446 -229 10 -39 -19 -84 -68 -106 -57 -25 -189 -39 -366 -39 -152 0
-399 -13 -560 -30 -177 -19 -702 -113 -731 -131 -11 -6 -9 -18 10 -61 81 -185
93 -221 88 -260 -15 -111 -285 -453 -551 -697 -239 -220 -582 -458 -868 -602
l-59 -30 33 -42 c61 -78 212 -228 303 -302 343 -277 747 -445 1194 -496 152
-17 475 -7 626 20 451 80 849 279 1170 586 l80 76 -65 -5 c-436 -36 -952 -42
-1135 -13 -383 60 -592 206 -636 442 -6 37 -12 282 -15 635 -4 465 -8 583 -20
619 -19 61 -18 87 7 112 25 25 43 22 144 -25 88 -41 167 -101 223 -167 35 -43
42 -58 42 -94 0 -23 -7 -59 -15 -79 -18 -42 -54 -206 -91 -409 -35 -192 -46
-513 -20 -581 38 -100 139 -151 331 -168 157 -14 656 -3 792 16 382 56 414
102 452 629 11 150 20 180 54 175 34 -5 44 -41 62 -203 20 -187 55 -334 107
-448 23 -48 44 -87 47 -87 3 0 29 42 57 93 110 197 193 430 236 667 29 159 32
523 5 684 -162 960 -923 1681 -1911 1812 -114 15 -496 20 -496 7z"/>
<path d="M2000 4645 c-617 -180 -1107 -588 -1380 -1148 -147 -303 -211 -582
-211 -922 0 -409 105 -776 319 -1118 31 -50 60 -95 63 -100 12 -17 340 265
563 483 172 169 254 263 361 415 170 242 273 443 283 549 l5 59 -39 -7 c-113
-20 -539 -159 -754 -246 -103 -42 -106 -43 -162 -31 -32 6 -114 30 -183 52
-104 33 -128 44 -137 65 -22 48 -73 32 912 293 311 82 577 154 593 160 l27 11
0 652 c0 635 -1 654 -21 698 -36 80 -94 170 -109 169 -8 0 -67 -15 -130 -34z
m-404 -776 l206 -112 59 -121 c32 -67 63 -143 68 -169 19 -103 -26 -173 -106
-164 -55 6 -160 81 -223 159 -105 131 -299 479 -286 513 12 32 67 11 282 -106z"/>
<path d="M1334 3965 c-7 -17 87 -201 176 -344 146 -233 309 -354 379 -280 47
51 37 118 -45 289 l-56 116 -206 111 c-237 126 -241 128 -248 108z"/>
<path d="M2412 2888 c-15 -15 -15 -48 0 -85 8 -20 14 -203 18 -628 5 -427 11
-616 20 -655 52 -229 270 -363 674 -416 99 -13 181 -15 456 -11 434 8 723 33
872 77 79 24 148 81 148 122 0 14 -29 68 -64 123 -104 157 -149 306 -180 592
-17 156 -22 173 -42 173 -23 0 -31 -36 -38 -169 -17 -333 -72 -509 -177 -563
-56 -29 -213 -65 -333 -77 -135 -14 -756 -14 -849 -1 -81 12 -172 56 -214 103
-48 54 -57 113 -50 316 8 228 62 557 123 744 16 48 24 88 20 103 -4 14 -40 58
-79 98 -56 56 -94 83 -158 114 -100 49 -130 57 -147 40z"/>
</g>
</svg>
